<svg height="128" viewBox="0 0 256 256" width="128" xmlns="http://www.w3.org/2000/svg">
  <title>MSW DevTools logo</title>
  <rect fill="#121212" height="256" rx="56" width="256" />
  <g transform="translate(128, 128)">
    <path
      d="M -94 -20 L -114 0 L -94 20"
      fill="none"
      stroke="#6B7280"
      stroke-linecap="round"
      stroke-linejoin="round"
      stroke-width="12"
    />
    <g transform="scale(1.25)">
      <polygon fill="#3A2D58" points="0,14 -24,28 0,42 24,28" />
      <polygon fill="#2C2244" points="0,-28 24,-14 24,28 0,14" />
      <polygon fill="#221A35" points="0,-28 -24,-14 -24,28 0,14" />
      <polygon fill="#49396D" points="48,-28 24,-14 24,28 0,42 0,56 48,28" />
      <polygon fill="#5F4B8B" points="-48,-28 -24,-14 -24,28 0,42 0,56 -48,28" />
      <polygon fill="#8168B1" points="48,-28 0,-56 -24,-42 24,-14" />
      <polygon fill="#8168B1" points="-48,-28 0,-56 24,-42 -24,-14" />
    </g>
    <path
      d="M 72 28 L 84 -28"
      fill="none"
      stroke="#6B7280"
      stroke-linecap="round"
      stroke-width="10"
    />
    <path
      d="M 94 -20 L 114 0 L 94 20"
      fill="none"
      stroke="#6B7280"
      stroke-linecap="round"
      stroke-linejoin="round"
      stroke-width="12"
    />
  </g>
</svg>
